<svg xmlns="http://www.w3.org/2000/svg" viewBox="0 0 1200 630" width="1200" height="630">
  <defs>
    <radialGradient id="bg" cx="50%" cy="50%" r="70%">
      <stop offset="0%" stop-color="#1a1420"/>
      <stop offset="55%" stop-color="#0a080f"/>
      <stop offset="100%" stop-color="#020104"/>
    </radialGradient>
    <linearGradient id="gold" x1="0%" y1="0%" x2="100%" y2="100%">
      <stop offset="0%" stop-color="#a8843a"/>
      <stop offset="50%" stop-color="#e8c87a"/>
      <stop offset="100%" stop-color="#a8843a"/>
    </linearGradient>
  </defs>
  <!-- Background with radial vignette -->
  <rect width="1200" height="630" fill="url(#bg)"/>
  <!-- Starfield — 40 scattered dots -->
  <g fill="#fff5d8" opacity="0.75">
    <circle cx="120" cy="90"  r="1.2"/><circle cx="260" cy="180" r="1.8"/><circle cx="380" cy="60"  r="1.0"/>
    <circle cx="520" cy="140" r="1.4"/><circle cx="640" cy="80"  r="1.6"/><circle cx="800" cy="160" r="1.0"/>
    <circle cx="940" cy="70"  r="1.8"/><circle cx="1080" cy="140" r="1.2"/><circle cx="60"  cy="210" r="1.3"/>
    <circle cx="190" cy="320" r="1.1"/><circle cx="310" cy="440" r="1.5"/><circle cx="450" cy="520" r="1.0"/>
    <circle cx="590" cy="560" r="1.6"/><circle cx="720" cy="500" r="1.1"/><circle cx="860" cy="550" r="1.3"/>
    <circle cx="1000" cy="440" r="1.2"/><circle cx="1130" cy="520" r="1.5"/><circle cx="80"  cy="570" r="1.1"/>
    <circle cx="210" cy="600" r="0.9"/><circle cx="350" cy="240" r="0.8"/><circle cx="480" cy="380" r="1.0"/>
    <circle cx="620" cy="240" r="0.8"/><circle cx="780" cy="380" r="1.2"/><circle cx="900" cy="300" r="0.9"/>
    <circle cx="1060" cy="300" r="1.0"/>
  </g>
  <!-- Decorative frame -->
  <rect x="40" y="40" width="1120" height="550" fill="none" stroke="#c8a45a" stroke-opacity="0.35" stroke-width="1.5"/>
  <rect x="52" y="52" width="1096" height="526" fill="none" stroke="#c8a45a" stroke-opacity="0.15" stroke-width="0.8"/>
  <!-- Brand mark -->
  <text x="600" y="235" text-anchor="middle" font-family="Georgia, 'Times New Roman', serif" font-size="88" font-weight="700" fill="url(#gold)" letter-spacing="14">MYTHSENSUS</text>
  <!-- Tagline -->
  <text x="600" y="290" text-anchor="middle" font-family="'Trebuchet MS', sans-serif" font-size="22" fill="#c8a45a" opacity="0.75" letter-spacing="6">WHERE MYRIAD MYTHS REACH CONSENSUS — ABOUT YOU</text>
  <!-- Big headline -->
  <text x="600" y="395" text-anchor="middle" font-family="Georgia, serif" font-size="56" fill="#e6e2d8" letter-spacing="2">26 Ancient Systems · One Cosmic Score</text>
  <!-- Sub -->
  <text x="600" y="445" text-anchor="middle" font-family="Georgia, serif" font-style="italic" font-size="26" fill="#9a8a72">From BaZi to Vedic Jyotish · Free beta at mythsensus.com</text>
  <!-- Ornamental stars -->
  <text x="600" y="520" text-anchor="middle" font-size="32" fill="#c8a45a">✦ ✦ ✦</text>
</svg>
